<?xml version="1.0" encoding="UTF-8" standalone="no"?>
<!DOCTYPE svg PUBLIC "-//W3C//DTD SVG 1.1//EN" "http://www.w3.org/Graphics/SVG/1.1/DTD/svg11.dtd">
<svg width="100%" height="100%" viewBox="0 0 4139 8325" version="1.1" xmlns="http://www.w3.org/2000/svg" xmlns:xlink="http://www.w3.org/1999/xlink" xml:space="preserve" xmlns:serif="http://www.serif.com/" style="fill-rule:evenodd;clip-rule:evenodd;stroke-linejoin:round;stroke-miterlimit:2;">
    <g transform="matrix(1,0,0,1,-3497.61,-1772.68)">
        <g transform="matrix(4.16667,0,0,4.16667,0,0)">
            <path d="M1832.63,2363.71C1832.63,2396.61 1610.29,2423.29 1336.03,2423.29C1061.76,2423.29 839.426,2396.61 839.426,2363.71C839.426,2330.81 1061.76,2304.14 1336.03,2304.14C1610.29,2304.14 1832.63,2330.81 1832.63,2363.71Z" style="fill:rgb(166,166,166);fill-rule:nonzero;"/>
        </g>
        <g transform="matrix(4.16667,0,0,4.16667,0,0)">
            <path d="M1137.36,1079.89C1174.03,1080.34 1210.53,1070.42 1242.11,1053.72C1257.86,1045.14 1272.56,1035 1286.05,1023.65C1292.03,1018.68 1297.56,1013.27 1303.03,1007.67C1310.18,1027.18 1320.53,1044.98 1333.18,1060.6C1336.94,1065.37 1340.93,1069.9 1345.19,1074.4L1345.42,1074.62L1346.73,1075.77C1347.63,1076.67 1348.92,1077.45 1350.23,1078.15C1352.83,1079.55 1355.92,1080.32 1358.88,1080.34C1364.82,1080.31 1370.34,1077.77 1374.11,1073.1C1375.97,1070.85 1377.33,1067.96 1377.97,1065.12C1378.34,1063.66 1378.43,1062.24 1378.42,1060.89L1378.39,1059.63L1378.44,1057.93C1378.49,1055.78 1378.58,1053.46 1378.9,1051.28C1379.81,1042.29 1382.61,1033.74 1386.97,1026.49C1391.26,1019.04 1397.13,1012.79 1404.17,1007.49C1411.51,1002.42 1419.91,998.454 1429.02,995.433C1433.62,993.974 1438.51,992.841 1443.22,991.675L1458.38,989L1476.72,985.674C1482.77,984.133 1488.79,982.229 1494.78,980.499C1518.83,972.692 1541.58,958.526 1559.54,939.762C1565.22,934.018 1570.29,927.707 1574.89,921.037C1582.74,937.814 1592.1,953.711 1602.36,968.701C1622,997.616 1644.67,1023.79 1669.08,1047.95C1675.21,1053.97 1681.56,1059.77 1687.91,1065.57C1693.06,1070.14 1697.19,1074.89 1700.9,1080.36C1704.53,1085.82 1707.44,1091.76 1709.57,1098.01C1711.76,1104.45 1712.67,1110.02 1713.68,1118.84C1718.01,1151.21 1721.22,1183.81 1722.61,1216.52C1725.65,1281.98 1723.77,1347.76 1715.78,1412.64C1708.37,1477.73 1694.24,1541.35 1673.74,1603.48C1653.23,1665.7 1628.03,1726.58 1599.87,1785.99C1571.63,1845.39 1540,1903.24 1505.11,1958.85C1470.06,2014.34 1431.73,2067.76 1388.79,2117.07C1367.34,2141.82 1344.92,2165.57 1321.1,2187.71C1297.49,2210.16 1272.4,2230.97 1246.14,2249.86C1220.08,2269.15 1192.28,2285.76 1163.62,2300.33C1135.01,2315.08 1104.76,2326.19 1073.93,2334.68L1062.39,2337.69L1056.52,2339.26L1053.7,2339.89L1051.77,2340.15C1046.49,2340.94 1041.31,2340.31 1036.57,2338.33C1027.08,2334.36 1019.83,2324.34 1019.26,2314.17C1019.06,2312.87 1019.03,2311.61 1019.19,2310.29C1019.25,2309.05 1019.32,2307.71 1019.73,2306.53C1020.06,2305.25 1020.23,2303.93 1020.82,2302.7C1021.45,2301.29 1021.39,2300.65 1022.53,2298.44L1032.91,2275.62C1039.79,2260.31 1046.48,2245.05 1053.03,2229.59C1104.88,2106.41 1147.88,1978.66 1171.69,1846.08C1183.27,1779.81 1189.98,1712.26 1187.35,1644.18C1186.27,1627.26 1186.3,1610.19 1183.42,1593.28C1181.07,1576.39 1179.16,1559.13 1175.94,1543.06L1158.11,1444.93C1146.23,1379.67 1134.15,1314.46 1125.4,1249.25C1118,1192.03 1112.88,1134.17 1120.37,1078.98C1126.02,1079.52 1131.72,1079.8 1137.36,1079.89Z" style="fill:rgb(216,31,41);fill-rule:nonzero;"/>
        </g>
        <g transform="matrix(4.16667,0,0,4.16667,0,0)">
            <path d="M1500.51,461.369C1480.58,486.227 1390.62,606.172 1401.08,733.441C1401.25,733.475 1401.51,733.524 1401.69,733.557C1418.95,740.091 1449.66,758.09 1449.66,758.09L1470.45,765.926C1478,761.707 1485.83,758.8 1493.83,756.463C1497.92,607.083 1542.98,516.123 1561.51,484.976C1550.72,474.197 1528.98,457.731 1500.51,461.369Z" style="fill:rgb(12,148,71);fill-rule:nonzero;"/>
        </g>
        <g transform="matrix(4.16667,0,0,4.16667,0,0)">
            <path d="M1109.96,1019.21L1110.96,1029.47C1111.05,1029.49 1111.22,1029.52 1111.47,1029.66L1116.79,1030.49C1123.93,1031.68 1131.17,1032.34 1138.31,1032.63C1167.11,1033.82 1196.1,1027.85 1222.95,1015.28C1236.33,1009.21 1249.3,1001.53 1261.43,992.617C1267.59,988.132 1273.5,983.511 1279.22,978.493C1284.72,973.703 1290.58,967.991 1294.79,963.316L1294.88,963.332C1295.15,948.736 1298.21,934.134 1304.49,921.044C1305.92,918.262 1307.19,915.36 1308.86,912.715C1310.61,910.172 1312.61,907.68 1314.43,905.24L1320.22,897.989L1327.11,892.026C1335.97,883.745 1346.86,878.458 1357.77,874.07C1351.94,884.819 1344.77,893.155 1339.8,902.72L1335.63,909.472L1332.39,916.581C1331.32,918.892 1330.25,921.204 1329.02,923.396C1328.04,925.724 1327.49,928.135 1326.61,930.393C1319.75,948.854 1319.72,968.797 1326.47,987.521C1331.39,1001.31 1338.87,1014.33 1347.96,1026.49C1349.73,1020.54 1351.93,1014.67 1354.79,1009.11C1361.21,996.674 1370.65,985.808 1381.35,977.337C1392.18,969.073 1404.04,962.981 1416.14,958.463C1422.13,956.282 1428.29,954.584 1434.37,952.87L1452.31,949.288L1467.17,946.287C1471.94,944.861 1476.65,943.245 1481.33,941.802C1485.95,940.17 1490.33,937.951 1494.9,936.128C1499.18,933.98 1503.33,931.538 1507.55,929.199C1515.5,923.799 1523.23,918.175 1529.61,911.126C1536.3,904.318 1542,896.6 1546.63,888.32C1549.04,884.196 1551.2,879.936 1553.02,875.61C1554.05,873.472 1554.75,871.268 1555.52,869.08C1556.25,867.152 1557.04,864.427 1557.22,863.473C1557.29,863.126 1557.34,862.866 1557.4,862.52C1558.7,855.757 1563.44,849.744 1570.38,847.295C1580.8,843.536 1592.34,848.976 1596.1,859.399L1596.87,861.522C1617.51,919.026 1653.89,972.707 1698.59,1018.63C1704.13,1024.45 1709.89,1030.04 1715.67,1035.55C1722.82,1042.31 1729.38,1050.3 1734.68,1058.78C1737.83,1063.96 1740.47,1069.41 1742.82,1074.98C1745.47,1069.1 1747.77,1063.16 1749.85,1057C1756.76,1035.86 1759.96,1013.46 1760.43,990.815C1760.63,979.44 1760.46,968.085 1759.04,956.672C1758.53,950.912 1758.01,945.151 1756.89,940.175C1756.19,934.918 1754.66,929.773 1753.14,924.541C1746.94,903.855 1736.17,884.005 1722.31,866.709C1708.47,849.327 1691.94,833.768 1672.92,821.415C1668.25,818.097 1663.14,815.683 1658.23,812.678L1650.85,808.483L1642.98,805.002L1627.36,797.883L1610.99,792.329L1602.79,789.594L1594.29,787.521L1577.27,783.461C1565.83,781.274 1554.12,780.025 1542.5,778.255C1530.73,777.802 1519.02,777.003 1507.11,774.907C1495.17,773.435 1483.1,771.219 1470.45,765.926L1449.66,758.09C1449.66,758.09 1341.19,760.01 1265.68,799.143C1238.76,813.051 1211.79,826.769 1189.17,846.352C1166.65,865.952 1147.46,889.245 1133.71,915.105C1119.63,940.813 1111.07,969.19 1109.82,997.799C1109.35,1004.99 1109.7,1012.06 1109.96,1019.21Z" style="fill:rgb(12,148,71);fill-rule:nonzero;"/>
        </g>
        <g transform="matrix(4.16667,0,0,4.16667,0,0)">
            <path d="M1538.21,451.022C1538.21,451.022 1419.17,590.983 1421.42,752.694C1421.42,752.694 1204.66,810.938 1181.75,950.986C1181.75,950.986 1245.21,966.962 1282.92,902.918C1282.92,902.918 1322.03,870.311 1356.18,873.768C1356.18,873.768 1339.64,917.606 1348.41,953.944C1348.41,953.944 1364.49,926.346 1415.4,919.636C1462.48,913.431 1503.84,911.957 1530.84,833.582C1535.5,820.04 1549.26,811.599 1563.38,814.009C1585.4,817.768 1615.9,830.011 1632.72,867.494C1661.09,930.684 1696.67,997.376 1775.05,1010.43C1775.05,1010.43 1790.34,859.844 1699.9,819.182C1609.46,778.52 1518.4,771.224 1518.4,771.224L1519.58,695.873C1519.58,695.873 1540.29,528.447 1569.79,493.645C1599.29,458.842 1538.21,451.022 1538.21,451.022Z" style="fill:rgb(15,178,75);fill-rule:nonzero;"/>
        </g>
        <g transform="matrix(4.16667,0,0,4.16667,0,0)">
            <path d="M1775.02,959.274C1775.02,959.274 1731.05,972.171 1685.92,900.965C1640.79,829.759 1649.13,796.202 1649.13,796.202C1649.13,796.202 1748.57,846.268 1775.02,959.274Z" style="fill:rgb(73,183,83);fill-rule:nonzero;"/>
        </g>
        <g transform="matrix(4.16667,0,0,4.16667,0,0)">
            <path d="M1501.8,814.755C1501.8,814.755 1492.8,853.475 1430.63,871.445C1368.47,889.415 1366.73,903.526 1366.73,903.526C1366.73,903.526 1385.36,812.728 1501.8,814.755Z" style="fill:rgb(73,183,83);fill-rule:nonzero;"/>
        </g>
        <g transform="matrix(4.16667,0,0,4.16667,0,0)">
            <path d="M1379.04,797.078C1379.04,797.078 1266.39,839.102 1219.1,925.385C1219.1,925.385 1250.46,828.355 1379.04,797.078Z" style="fill:rgb(73,183,83);fill-rule:nonzero;"/>
        </g>
        <g transform="matrix(4.16667,0,0,4.16667,0,0)">
            <path d="M1547.65,462.455C1547.65,462.455 1447.59,685.083 1493.83,756.463C1493.83,756.463 1515.09,639.172 1516.73,636.596C1518.36,634.02 1568.72,507.881 1568.72,507.881C1568.72,507.881 1583.08,481.741 1578.22,476.96C1573.35,472.18 1547.65,462.455 1547.65,462.455Z" style="fill:rgb(73,183,83);fill-rule:nonzero;"/>
        </g>
        <g transform="matrix(4.16667,0,0,4.16667,0,0)">
            <path d="M1693.77,1152.16C1690.63,1097.09 1626.85,1046.55 1573.37,1033.06C1549.49,1027.04 1520.57,1024.82 1486.41,1030.4C1366.86,1049.92 1408.43,1171.29 1408.43,1171.29C1386.43,1158.48 1366.6,1144.8 1349.54,1131.82C1331.17,1117.85 1305.91,1135.86 1312.66,1157.93C1369.18,1342.51 1368.26,1523.45 1341.66,1683.09C1351.04,1700.81 1371.38,1710.79 1391.79,1710.38C1416.34,1709.89 1434.88,1694.17 1442.13,1671.36C1449.23,1649.06 1448.88,1625.31 1453.67,1602.55C1458.99,1577.2 1465.99,1548.41 1485.9,1530.27C1493.86,1523.02 1505.73,1534.84 1497.75,1542.12C1478.52,1559.64 1472.24,1590.5 1468.22,1615.16C1461.99,1653.36 1463.05,1700.77 1422.1,1719.89C1420.12,1720.82 1418.11,1721.64 1416.06,1722.37C1364.23,1740.89 1322.88,1780.49 1308.09,1833.5C1239.78,2078.24 1127.26,2244.27 1127.26,2244.27C1326.13,2209.09 1484.92,1989.94 1620.46,1656.8C1703.88,1451.76 1699.16,1246.41 1693.77,1152.16Z" style="fill:rgb(236,30,39);fill-rule:nonzero;"/>
        </g>
        <g transform="matrix(4.16667,0,0,4.16667,0,0)">
            <path d="M1133.71,915.105C1147.46,889.245 1166.65,865.952 1189.17,846.352C1211.79,826.769 1238.76,813.051 1265.68,799.143C1341.19,760.01 1449.66,758.09 1449.66,758.09C1449.66,758.09 1418.95,740.091 1401.69,733.557C1401.51,733.524 1401.25,733.475 1401.08,733.441C1390.62,606.172 1480.58,486.227 1500.51,461.369C1528.98,457.73 1550.72,474.197 1561.51,484.976C1542.98,516.123 1497.92,607.083 1493.83,756.463C1485.83,758.8 1478,761.707 1470.45,765.926C1483.1,771.218 1495.17,773.435 1507.11,774.907C1519.02,777.003 1530.73,777.802 1542.5,778.255C1554.12,780.025 1565.83,781.274 1577.27,783.461L1594.29,787.521L1602.79,789.594L1610.99,792.328L1627.36,797.883L1642.98,805.002L1650.85,808.483L1658.23,812.678C1663.14,815.683 1668.25,818.097 1672.92,821.415C1691.94,833.768 1708.47,849.327 1722.31,866.709C1736.17,884.005 1746.94,903.855 1753.14,924.541C1754.66,929.773 1756.19,934.918 1756.89,940.175C1758.01,945.151 1758.53,950.912 1759.04,956.672C1760.46,968.085 1760.62,979.44 1760.43,990.815C1759.96,1013.46 1756.76,1035.86 1749.85,1057C1747.77,1063.16 1745.47,1069.1 1742.82,1074.98C1740.47,1069.41 1737.83,1063.96 1734.68,1058.78C1729.38,1050.3 1722.82,1042.31 1715.67,1035.55C1709.89,1030.04 1704.13,1024.45 1698.59,1018.63C1653.89,972.707 1617.51,919.026 1596.87,861.522L1596.1,859.399C1592.34,848.976 1580.8,843.536 1570.38,847.295C1563.44,849.744 1558.7,855.757 1557.4,862.52C1557.34,862.867 1557.29,863.126 1557.22,863.473C1557.04,864.427 1556.25,867.152 1555.52,869.08C1554.75,871.268 1554.05,873.472 1553.02,875.61C1551.2,879.936 1549.04,884.196 1546.63,888.32C1542,896.6 1536.3,904.318 1529.61,911.126C1523.23,918.175 1515.5,923.799 1507.55,929.199C1503.33,931.538 1499.18,933.979 1494.9,936.128C1490.33,937.951 1485.95,940.17 1481.33,941.802C1476.65,943.245 1471.94,944.86 1467.17,946.287L1452.31,949.288L1434.37,952.87C1428.29,954.584 1422.13,956.282 1416.14,958.463C1404.04,962.981 1392.18,969.073 1381.35,977.337C1370.66,985.808 1361.21,996.675 1354.79,1009.11C1351.93,1014.67 1349.73,1020.54 1347.96,1026.49C1338.87,1014.33 1331.39,1001.31 1326.47,987.521C1319.72,968.796 1319.75,948.854 1326.61,930.393C1327.49,928.135 1328.04,925.724 1329.02,923.396C1330.25,921.204 1331.32,918.892 1332.39,916.58L1335.63,909.472L1339.8,902.72C1344.77,893.155 1351.94,884.819 1357.77,874.071C1346.86,878.458 1335.97,883.745 1327.11,892.026L1320.22,897.989L1314.43,905.24C1312.61,907.679 1310.61,910.172 1308.86,912.714C1307.19,915.36 1305.92,918.262 1304.49,921.044C1298.21,934.134 1295.15,948.736 1294.88,963.332L1294.79,963.315C1290.57,967.992 1284.72,973.703 1279.22,978.493C1273.5,983.511 1267.59,988.132 1261.43,992.617C1249.3,1001.53 1236.33,1009.21 1222.95,1015.28C1196.1,1027.85 1167.11,1033.82 1138.31,1032.63C1131.17,1032.34 1123.93,1031.68 1116.79,1030.49L1111.47,1029.66C1111.22,1029.52 1111.05,1029.49 1110.96,1029.47L1109.96,1019.21C1109.7,1012.06 1109.35,1004.99 1109.82,997.799C1111.07,969.19 1119.63,940.813 1133.71,915.105ZM1120.37,1078.98C1126.02,1079.52 1131.72,1079.8 1137.36,1079.89C1174.03,1080.34 1210.53,1070.42 1242.11,1053.72C1257.86,1045.14 1272.56,1035 1286.05,1023.65C1292.03,1018.68 1297.56,1013.27 1303.03,1007.67C1310.18,1027.18 1320.53,1044.98 1333.18,1060.6C1336.94,1065.37 1340.93,1069.9 1345.19,1074.4L1345.42,1074.62L1346.73,1075.77C1347.63,1076.67 1348.92,1077.45 1350.23,1078.15C1352.83,1079.55 1355.92,1080.32 1358.88,1080.34C1364.82,1080.31 1370.34,1077.77 1374.11,1073.1C1375.97,1070.85 1377.33,1067.96 1377.97,1065.12C1378.34,1063.66 1378.43,1062.24 1378.42,1060.89L1378.39,1059.63L1378.44,1057.93C1378.49,1055.78 1378.58,1053.46 1378.9,1051.28C1379.81,1042.29 1382.61,1033.74 1386.97,1026.49C1391.26,1019.04 1397.13,1012.79 1404.17,1007.49C1411.51,1002.42 1419.91,998.454 1429.02,995.433C1433.62,993.974 1438.51,992.841 1443.22,991.675L1458.38,989L1476.72,985.674C1482.77,984.133 1488.79,982.229 1494.78,980.499C1518.83,972.692 1541.58,958.526 1559.54,939.762C1565.22,934.018 1570.29,927.707 1574.89,921.037C1582.74,937.814 1592.1,953.711 1602.36,968.701C1622,997.616 1644.67,1023.79 1669.08,1047.95C1675.21,1053.97 1681.56,1059.77 1687.91,1065.57C1693.06,1070.14 1697.19,1074.89 1700.9,1080.36C1704.53,1085.82 1707.44,1091.76 1709.57,1098.01C1711.76,1104.45 1712.67,1110.02 1713.68,1118.84C1718.01,1151.21 1721.22,1183.81 1722.61,1216.52C1725.65,1281.98 1723.77,1347.76 1715.78,1412.64C1708.37,1477.73 1694.24,1541.35 1673.74,1603.48C1653.23,1665.7 1628.03,1726.58 1599.87,1785.99C1571.63,1845.39 1540,1903.24 1505.11,1958.85C1470.06,2014.34 1431.73,2067.76 1388.79,2117.07C1367.34,2141.82 1344.92,2165.57 1321.1,2187.71C1297.49,2210.16 1272.4,2230.97 1246.14,2249.86C1220.08,2269.15 1192.28,2285.76 1163.62,2300.33C1135.01,2315.08 1104.76,2326.19 1073.93,2334.68L1062.39,2337.69L1056.52,2339.26L1053.7,2339.89L1051.77,2340.15C1046.49,2340.94 1041.31,2340.31 1036.57,2338.33C1027.08,2334.36 1019.83,2324.34 1019.26,2314.17C1019.06,2312.87 1019.03,2311.61 1019.19,2310.29C1019.25,2309.05 1019.32,2307.71 1019.73,2306.53C1020.06,2305.25 1020.23,2303.93 1020.82,2302.7C1021.45,2301.29 1021.39,2300.65 1022.53,2298.44L1032.91,2275.62C1039.79,2260.31 1046.48,2245.05 1053.03,2229.59C1104.88,2106.41 1147.88,1978.66 1171.69,1846.08C1183.27,1779.81 1189.98,1712.26 1187.35,1644.18C1186.27,1627.26 1186.3,1610.19 1183.42,1593.28C1181.07,1576.39 1179.16,1559.13 1175.94,1543.06L1158.11,1444.93C1146.23,1379.67 1134.15,1314.46 1125.4,1249.25C1118,1192.03 1112.88,1134.17 1120.37,1078.98ZM1060.17,995.682C1059.68,1004.84 1060.07,1014.08 1060.84,1023.22L1062.52,1037.02C1063.94,1045.56 1067.61,1053.63 1072.9,1059.85C1076.62,1064.33 1081.05,1067.97 1085.98,1070.89C1082.09,1098.27 1081.06,1125.75 1081.9,1152.87C1082.94,1186.95 1086.4,1220.59 1090.91,1253.89C1100.05,1320.34 1112.35,1385.78 1124.39,1451.16L1142.53,1549.07C1145.85,1565.53 1147.51,1581.3 1149.85,1597.29C1152.56,1613.18 1152.6,1629.45 1153.73,1645.66C1156.46,1710.35 1150.07,1775.8 1138.66,1840.21C1115.43,1969.31 1073.08,2095.03 1021.86,2216.36C1015.45,2231.58 1008.71,2246.64 1001.98,2261.62L991.665,2284.1C990.917,2285.66 989.647,2289.01 988.733,2291.44C987.613,2294.02 987.083,2296.79 986.45,2299.63C985.746,2302.38 985.476,2305.2 985.276,2308.13C985.006,2310.95 985.083,2313.84 985.35,2316.68C987.054,2339.74 1001.96,2360.47 1023.15,2369.55C1033.59,2374.15 1045.55,2375.54 1056.65,2373.88L1060.81,2373.24C1062.11,2373.04 1062.99,2372.67 1064.11,2372.44L1070.35,2370.84L1082.82,2367.65C1116.01,2358.54 1148.4,2346.57 1178.91,2330.83C1209.43,2315.46 1238.85,2297.9 1266.25,2277.7C1293.78,2257.8 1320.03,2236.12 1344.62,2212.78C1369.42,2189.75 1392.63,2165.16 1414.76,2139.64C1459.16,2088.82 1498.47,2034.05 1534.47,1977.31C1570.14,1920.41 1602.42,1861.52 1631.25,1800.97C1660.07,1740.43 1685.76,1678.39 1706.97,1614.41C1728.28,1550.37 1743.08,1483.73 1750.75,1416.81C1754.89,1383.36 1757.46,1349.71 1758.59,1316.04C1759.72,1282.38 1760.12,1248.76 1758.83,1215.08C1757.72,1186.56 1756.15,1158.04 1753.43,1129.49L1758.73,1121.96C1762.27,1116.62 1765.95,1111.03 1769.12,1105.25C1775.63,1093.74 1780.93,1081.54 1785.3,1068.99C1793.86,1043.93 1798.43,1017.67 1798.9,991.696C1798.96,978.677 1798.68,965.592 1797.16,952.812C1796.49,946.482 1795.91,940.082 1794.45,933.152C1793.75,929.783 1793.23,926.36 1792.34,923.043L1789.35,913.306C1780.97,887.532 1767.47,864.105 1750.61,843.718C1733.54,823.473 1713.31,806.128 1690.98,792.696C1685.47,789.125 1679.5,786.459 1673.8,783.392L1665.14,778.862L1656.23,775.182L1638.16,768.136L1619.58,762.877L1610.36,760.308L1601,758.519L1582.15,755.098C1569.64,753.335 1556.93,752.614 1544.38,751.475C1539.35,751.502 1534.33,751.441 1529.18,751.537C1535.24,582.042 1597.15,494.571 1597.77,493.701C1602.27,487.551 1602.25,479.189 1597.85,473.047C1596.08,470.552 1554.11,413.197 1487.24,427.83C1483.58,428.658 1480.24,430.625 1477.72,433.469C1472.5,439.572 1355.1,576.65 1365.53,731.86C1360.35,732.13 1355.09,732.383 1349.92,732.652C1315.34,735.391 1280.78,742.716 1248.08,755.341C1182.56,780.296 1124.08,827.714 1089.38,891.268C1072.27,922.957 1061.55,958.831 1060.17,995.682Z" style="fill:rgb(43,20,22);fill-rule:nonzero;"/>
        </g>
        <g transform="matrix(4.16667,0,0,4.16667,0,0)">
            <path d="M1204.53,1374.51C1204.53,1374.51 1349.56,1774.5 1136.03,2136.16C1136.03,2136.16 1295,1804.51 1204.53,1374.51Z" style="fill:rgb(236,30,39);fill-rule:nonzero;"/>
        </g>
        <g transform="matrix(4.16667,0,0,4.16667,0,0)">
            <path d="M1279.85,1564.85C1275.74,1556.95 1274.68,1547.86 1276.83,1539.22C1283.19,1513.64 1306.51,1463.97 1392.01,1454.23C1475.05,1444.77 1522.32,1486.51 1542.53,1511.1C1550.37,1520.63 1552.79,1533.52 1549.41,1545.39C1544.3,1563.36 1526.97,1574.93 1508.4,1572.93C1464.66,1568.24 1352.03,1546.16 1322.09,1582.93C1305.59,1588.02 1287.83,1580.16 1279.85,1564.85Z" style="fill:rgb(43,20,22);fill-rule:nonzero;"/>
        </g>
        <g transform="matrix(4.16667,0,0,4.16667,0,0)">
            <path d="M1299.07,1155.38C1299.07,1155.38 1195.49,1177.89 1173.43,1292.88C1173.43,1292.88 1148.56,1144.04 1299.07,1155.38Z" style="fill:rgb(43,20,22);fill-rule:nonzero;"/>
        </g>
        <g transform="matrix(4.16667,0,0,4.16667,0,0)">
            <path d="M1487.41,1136.47C1487.41,1136.47 1612.93,1132.69 1648.52,1234.83C1648.52,1234.83 1636.83,1079.73 1487.41,1136.47Z" style="fill:rgb(43,20,22);fill-rule:nonzero;"/>
        </g>
        <g transform="matrix(4.16667,0,0,4.16667,0,0)">
            <path d="M1736.23,1454.76L1711.73,1480.19C1712.74,1481.16 1812.21,1578.75 1767.99,1688.62C1731.25,1779.93 1561.43,1785.73 1506.02,1785.13C1504.24,1781.77 1502.51,1778.41 1500.8,1775.08C1487.52,1749.21 1472.47,1719.9 1435.57,1715.38C1425.83,1714.22 1417.08,1721.08 1415.89,1730.77C1414.71,1740.44 1421.6,1749.25 1431.27,1750.43C1436.67,1751.09 1441.1,1753.02 1445.11,1755.91C1441.88,1755.3 1438.59,1754.75 1435.05,1754.42C1404.32,1751.61 1387.29,1768.37 1381.6,1785.04C1374.46,1805.95 1383.18,1829.95 1402.34,1842.11C1414.2,1849.64 1425.7,1852.69 1436.5,1852.69C1461.9,1852.69 1483.35,1835.75 1496.03,1820.3C1544.39,1821.81 1752.68,1821.22 1800.75,1701.8C1853.76,1570.09 1741.05,1459.41 1736.23,1454.76Z" style="fill:rgb(43,20,22);fill-rule:nonzero;"/>
        </g>
        <g transform="matrix(4.16667,0,0,4.16667,0,0)">
            <path d="M1320.52,1823.55C1313.91,1822.25 1307.49,1821.85 1301.32,1822.08C1305.56,1820.09 1310.37,1818.38 1315.99,1817.19C1325.52,1815.18 1331.62,1805.81 1329.6,1796.27C1327.59,1786.73 1318.22,1780.64 1308.68,1782.65C1264.1,1792.07 1245.2,1824.12 1239.7,1845.54C1207.33,1840.02 1081.1,1812.99 1058.97,1724.67C1033.95,1624.83 1165.92,1546.68 1167.26,1545.91L1158.39,1530.64L1149.54,1515.37C1143.15,1519.07 993.232,1607.59 1024.72,1733.25C1053.28,1847.18 1205.88,1876.17 1237.53,1881C1252.79,1893.93 1280.25,1914.25 1304.72,1916.67C1312.15,1917.41 1319.3,1916.49 1325.75,1913.23C1343.2,1904.38 1359.8,1879.79 1356.68,1857.29C1355.54,1849.06 1349.73,1829.28 1320.52,1823.55Z" style="fill:rgb(43,20,22);fill-rule:nonzero;"/>
        </g>
        <g transform="matrix(4.16667,0,0,4.16667,0,0)">
            <path d="M1288.58,1197.12C1329.03,1198.47 1360.35,1242.47 1358.52,1295.32C1356.76,1348.27 1322.46,1389.98 1282.01,1388.63C1241.57,1387.19 1210.24,1343.28 1212.09,1290.35C1213.83,1237.48 1248.13,1195.78 1288.58,1197.12Z" style="fill:rgb(43,20,22);fill-rule:nonzero;"/>
        </g>
        <g transform="matrix(4.16667,0,0,4.16667,0,0)">
            <path d="M1452.68,1271.88C1454.53,1217.06 1490.01,1173.87 1531.79,1175.3C1573.66,1176.74 1606.12,1222.3 1604.29,1277.03C1602.37,1331.75 1566.97,1374.96 1525.1,1373.52C1483.23,1372.08 1450.76,1326.6 1452.68,1271.88Z" style="fill:rgb(43,20,22);fill-rule:nonzero;"/>
        </g>
        <g transform="matrix(4.16667,0,0,4.16667,0,0)">
            <g transform="matrix(1.32429,0,0,1.27105,-477.794,-344.525)">
                <path d="M1477.55,1249.21C1476.81,1271.03 1493.97,1289.32 1515.87,1290.06C1537.78,1290.81 1556.14,1273.73 1556.88,1251.91C1557.62,1230.09 1540.47,1211.8 1518.56,1211.05C1496.66,1210.3 1478.3,1227.39 1477.55,1249.21Z" style="fill:white;fill-rule:nonzero;"/>
            </g>
        </g>
        <g transform="matrix(4.16667,0,0,4.16667,0,0)">
            <g transform="matrix(1.32429,0,0,1.27105,-723.232,-328.736)">
                <path d="M1477.55,1249.21C1476.81,1271.03 1493.97,1289.32 1515.87,1290.06C1537.78,1290.81 1556.14,1273.73 1556.88,1251.91C1557.62,1230.09 1540.47,1211.8 1518.56,1211.05C1496.66,1210.3 1478.3,1227.39 1477.55,1249.21Z" style="fill:white;fill-rule:nonzero;"/>
            </g>
        </g>
        <g transform="matrix(4.16667,0,0,4.16667,0,0)">
            <path d="M1537.46,1325.42C1537.14,1334.72 1544.45,1342.51 1553.78,1342.83C1563.12,1343.14 1570.94,1335.87 1571.25,1326.57C1571.57,1317.28 1564.26,1309.48 1554.93,1309.17C1545.6,1308.85 1537.78,1316.13 1537.46,1325.42Z" style="fill:white;fill-rule:nonzero;"/>
        </g>
        <g transform="matrix(4.16667,0,0,4.16667,0,0)">
            <path d="M1294.01,1342.14C1293.7,1351.12 1300.76,1358.65 1309.78,1358.96C1318.79,1359.27 1326.35,1352.23 1326.65,1343.26C1326.96,1334.28 1319.9,1326.75 1310.88,1326.44C1301.87,1326.13 1294.31,1333.16 1294.01,1342.14Z" style="fill:white;fill-rule:nonzero;"/>
        </g>
    </g>
</svg>
