<?xml version="1.0" encoding="UTF-8" standalone="no"?>
<!DOCTYPE svg PUBLIC "-//W3C//DTD SVG 1.1//EN" "http://www.w3.org/Graphics/SVG/1.1/DTD/svg11.dtd">
<svg width="100%" height="100%" viewBox="0 0 55 55" version="1.1" xmlns="http://www.w3.org/2000/svg" xmlns:xlink="http://www.w3.org/1999/xlink" xml:space="preserve" xmlns:serif="http://www.serif.com/" style="fill-rule:evenodd;clip-rule:evenodd;stroke-linejoin:round;stroke-miterlimit:2;">
    <g id="_23" transform="matrix(1,0,0,1,-292.93,-728)">
        <g transform="matrix(1,0,0,1,-15.532,-3.15278)">
            <path d="M328.08,774.085L328.08,781.257C328.121,782.213 328.909,782.981 329.865,783L340.717,783C341.672,782.98 342.457,782.212 342.498,781.258L342.498,774.086L335.287,781.296L328.08,774.085Z" style="fill:rgb(153,153,153);"/>
        </g>
        <g transform="matrix(1,0,0,1,-15.532,-3.15278)">
            <path d="M335.289,778.96L328.08,771.75L328.08,773.157L335.289,780.367L342.5,773.157L342.5,771.75L335.289,778.96Z" style="fill:rgb(157,6,6);"/>
        </g>
        <g transform="matrix(1,0,0,1,-15.532,-3.15278)">
            <path d="M334.938,759.16L328.08,766.018L328.08,767.426L335.289,760.216L342.5,767.427L342.5,766.02L335.289,758.81L334.938,759.16Z" style="fill:rgb(157,6,6);"/>
        </g>
        <g transform="matrix(1,0,0,1,-15.532,-3.15278)">
            <path d="M341.307,753.085C340.18,751.958 338.864,750.275 338.864,749.249L338.864,745.779L331.717,745.779L331.717,749.249C331.717,750.275 330.401,751.958 329.272,753.085C328.524,753.983 328.103,755.11 328.08,756.279L328.08,765.091L334.938,758.232L335.289,757.88L342.5,765.091L342.5,756.291C342.477,755.118 342.056,753.987 341.307,753.085Z" style="fill:rgb(153,153,153);"/>
        </g>
        <g transform="matrix(1,0,0,1,-15.532,1.84722)">
            <path d="M338.84,744.849C338.84,744.849 340.031,737.733 338.84,736.31C337.649,734.887 332.885,734.887 331.694,736.31C330.503,737.733 331.694,744.849 331.694,744.849L332.623,744.849C332.623,744.849 331.742,738.508 332.623,737.24C333.504,735.972 337.029,735.972 337.91,737.24C338.791,738.508 337.91,744.849 337.91,744.849L338.84,744.849Z" style="fill:rgb(153,153,153);"/>
        </g>
        <g transform="matrix(1,0,0,1,-15.532,2.84722)">
            <path d="M337.957,733.523C338.51,733.422 339.03,732.88 339.149,732.331C339.348,731.41 340.408,728.706 339.149,728C337.863,727.278 332.717,727.278 331.43,728C330.171,728.706 331.232,731.41 331.43,732.331C331.548,732.88 332.068,733.422 332.621,733.523C333.709,733.722 336.869,733.722 337.957,733.523Z" style="fill:rgb(153,153,153);"/>
        </g>
        <g transform="matrix(0.647283,0,0,0.64376,298.026,745.371)">
            <text x="23.301px" y="36.746px" style="font-family:'Quicksand-SemiBold', 'Quicksand';font-weight:300;font-size:12px;fill:rgb(157,6,6);">400</text>
        </g>
    </g>
</svg>
